<svg xmlns="http://www.w3.org/2000/svg" xmlns:xlink="http://www.w3.org/1999/xlink" contentStyleType="text/css" data-diagram-type="CLASS" height="694px" preserveAspectRatio="none" style="width:523px;height:694px;background:#FFFFFF;" version="1.1" viewBox="0 0 523 694" width="523px" zoomAndPan="magnify"><?plantuml 1.2026.3beta6?><defs/><g><!--class Personagem--><g class="entity" data-qualified-name="Personagem" data-source-line="3" id="ent0002"><rect fill="#F1F1F1" height="129.4844" rx="2.5" ry="2.5" style="stroke:#181818;stroke-width:0.5;" width="165.2754" x="95.89" y="23.3"/><ellipse cx="131.5966" cy="39.3" fill="#ADD1B2" rx="11" ry="11" style="stroke:#181818;stroke-width:1;"/><path d="M134.5653,44.9406 Q133.9872,45.2375 133.3466,45.3781 Q132.706,45.5344 132.0028,45.5344 Q129.5028,45.5344 128.1747,43.8938 Q126.8622,42.2375 126.8622,39.1125 Q126.8622,35.9875 128.1747,34.3313 Q129.5028,32.675 132.0028,32.675 Q132.706,32.675 133.3466,32.8313 Q134.0028,32.9875 134.5653,33.2844 L134.5653,36.0031 Q133.9403,35.425 133.3466,35.1594 Q132.7528,34.8781 132.1278,34.8781 Q130.7841,34.8781 130.0966,35.9563 Q129.4091,37.0188 129.4091,39.1125 Q129.4091,41.2063 130.0966,42.2844 Q130.7841,43.3469 132.1278,43.3469 Q132.7528,43.3469 133.3466,43.0813 Q133.9403,42.8 134.5653,42.2219 L134.5653,44.9406 Z " fill="#000000"/><text fill="#000000" font-family="sans-serif" font-size="14" lengthAdjust="spacing" textLength="87.2607" x="150.1981" y="44.1467">Personagem</text><line style="stroke:#181818;stroke-width:0.5;" x1="96.89" x2="260.1654" y1="55.3" y2="55.3"/><text fill="#000000" font-family="sans-serif" font-size="14" lengthAdjust="spacing" textLength="102.3682" x="101.89" y="72.2951">#nome: String</text><text fill="#000000" font-family="sans-serif" font-size="14" lengthAdjust="spacing" textLength="78.0049" x="101.89" y="88.592">#idade: int</text><text fill="#000000" font-family="sans-serif" font-size="14" lengthAdjust="spacing" textLength="130.6621" x="101.89" y="104.8889">#pontosSaude: int</text><text fill="#000000" font-family="sans-serif" font-size="14" lengthAdjust="spacing" textLength="105.8955" x="101.89" y="121.1857">#vivo: boolean</text><line style="stroke:#181818;stroke-width:0.5;" x1="96.89" x2="260.1654" y1="128.4875" y2="128.4875"/><text fill="#000000" font-family="sans-serif" font-size="14" lengthAdjust="spacing" textLength="153.2754" x="101.89" y="145.4826">+checarStatus(): void</text></g><!--class Mago--><g class="entity" data-qualified-name="Mago" data-source-line="11" id="ent0003"><rect fill="#F1F1F1" height="210.9688" rx="2.5" ry="2.5" style="stroke:#181818;stroke-width:0.5;" width="343.0645" x="7" y="246.08"/><ellipse cx="155.2271" cy="262.08" fill="#ADD1B2" rx="11" ry="11" style="stroke:#181818;stroke-width:1;"/><path d="M158.1958,267.7206 Q157.6177,268.0175 156.9771,268.1581 Q156.3364,268.3144 155.6333,268.3144 Q153.1333,268.3144 151.8052,266.6738 Q150.4927,265.0175 150.4927,261.8925 Q150.4927,258.7675 151.8052,257.1113 Q153.1333,255.455 155.6333,255.455 Q156.3364,255.455 156.9771,255.6113 Q157.6333,255.7675 158.1958,256.0644 L158.1958,258.7831 Q157.5708,258.205 156.9771,257.9394 Q156.3833,257.6581 155.7583,257.6581 Q154.4146,257.6581 153.7271,258.7363 Q153.0396,259.7988 153.0396,261.8925 Q153.0396,263.9863 153.7271,265.0644 Q154.4146,266.1269 155.7583,266.1269 Q156.3833,266.1269 156.9771,265.8613 Q157.5708,265.58 158.1958,265.0019 L158.1958,267.7206 Z " fill="#000000"/><text fill="#000000" font-family="sans-serif" font-size="14" lengthAdjust="spacing" textLength="38.1104" x="175.7271" y="266.9267">Mago</text><line style="stroke:#181818;stroke-width:0.5;" x1="8" x2="349.0645" y1="278.08" y2="278.08"/><text fill="#000000" font-family="sans-serif" font-size="14" lengthAdjust="spacing" textLength="107.3174" x="13" y="295.0751">#escola: String</text><line style="stroke:#181818;stroke-width:0.5;" x1="8" x2="349.0645" y1="302.3769" y2="302.3769"/><text fill="#000000" font-family="sans-serif" font-size="14" lengthAdjust="spacing" textLength="60.7646" x="13" y="319.372">+Mago()</text><text fill="#000000" font-family="sans-serif" font-size="14" lengthAdjust="spacing" textLength="331.0645" x="13" y="335.6689">+Mago(nome: String, idade: int, escola: String)</text><text fill="#000000" font-family="sans-serif" font-size="14" lengthAdjust="spacing" textLength="233.6797" x="13" y="351.9657">-inicializarAtributosPadrao(): void</text><text fill="#000000" font-family="sans-serif" font-size="14" lengthAdjust="spacing" textLength="102.1221" x="13" y="368.2626">+andar(): void</text><text fill="#000000" font-family="sans-serif" font-size="14" lengthAdjust="spacing" textLength="93.1807" x="13" y="384.5595">+falar(): void</text><text fill="#000000" font-family="sans-serif" font-size="14" lengthAdjust="spacing" textLength="155.1074" x="13" y="400.8564">+invocarMagia(): void</text><text fill="#000000" font-family="sans-serif" font-size="14" lengthAdjust="spacing" textLength="214.7715" x="13" y="417.1532">+setNome(nome: String): void</text><text fill="#000000" font-family="sans-serif" font-size="14" lengthAdjust="spacing" textLength="164.1309" x="13" y="433.4501">+getPontosSaude(): int</text><text fill="#000000" font-family="sans-serif" font-size="14" lengthAdjust="spacing" textLength="153.2754" x="13" y="449.747">+checarStatus(): void</text></g><!--class MagoBranco--><g class="entity" data-qualified-name="MagoBranco" data-source-line="24" id="ent0004"><rect fill="#F1F1F1" height="145.7813" rx="2.5" ry="2.5" style="stroke:#181818;stroke-width:0.5;" width="392.1396" x="103.46" y="534.05"/><ellipse cx="251.6871" cy="550.05" fill="#ADD1B2" rx="11" ry="11" style="stroke:#181818;stroke-width:1;"/><path d="M254.6558,555.6906 Q254.0777,555.9875 253.4371,556.1281 Q252.7964,556.2844 252.0933,556.2844 Q249.5933,556.2844 248.2652,554.6438 Q246.9527,552.9875 246.9527,549.8625 Q246.9527,546.7375 248.2652,545.0813 Q249.5933,543.425 252.0933,543.425 Q252.7964,543.425 253.4371,543.5813 Q254.0933,543.7375 254.6558,544.0344 L254.6558,546.7531 Q254.0308,546.175 253.4371,545.9094 Q252.8433,545.6281 252.2183,545.6281 Q250.8746,545.6281 250.1871,546.7063 Q249.4996,547.7688 249.4996,549.8625 Q249.4996,551.9563 250.1871,553.0344 Q250.8746,554.0969 252.2183,554.0969 Q252.8433,554.0969 253.4371,553.8313 Q254.0308,553.55 254.6558,552.9719 L254.6558,555.6906 Z " fill="#000000"/><text fill="#000000" font-family="sans-serif" font-size="14" lengthAdjust="spacing" textLength="87.1855" x="272.1871" y="554.8967">MagoBranco</text><line style="stroke:#181818;stroke-width:0.5;" x1="104.46" x2="494.5996" y1="566.05" y2="566.05"/><text fill="#000000" font-family="sans-serif" font-size="14" lengthAdjust="spacing" textLength="106.1621" x="109.46" y="583.0451">-poderCura: int</text><line style="stroke:#181818;stroke-width:0.5;" x1="104.46" x2="494.5996" y1="590.3469" y2="590.3469"/><text fill="#000000" font-family="sans-serif" font-size="14" lengthAdjust="spacing" textLength="380.1396" x="109.46" y="607.342">+MagoBranco(nome: String, idade: int, escola: String)</text><text fill="#000000" font-family="sans-serif" font-size="14" lengthAdjust="spacing" textLength="93.1807" x="109.46" y="623.6389">+falar(): void</text><text fill="#000000" font-family="sans-serif" font-size="14" lengthAdjust="spacing" textLength="98.1094" x="109.46" y="639.9357">+curar(): void</text><text fill="#000000" font-family="sans-serif" font-size="14" lengthAdjust="spacing" textLength="155.1074" x="109.46" y="656.2326">+invocarMagia(): void</text><text fill="#000000" font-family="sans-serif" font-size="14" lengthAdjust="spacing" textLength="153.2754" x="109.46" y="672.5295">+checarStatus(): void</text></g><!--class Main--><g class="entity" data-qualified-name="Main" data-source-line="33" id="ent0005"><rect fill="#F1F1F1" height="162.0781" rx="2.5" ry="2.5" style="stroke:#181818;stroke-width:0.5;" width="200.8154" x="308.12" y="7"/><ellipse cx="387.5673" cy="23" fill="#ADD1B2" rx="11" ry="11" style="stroke:#181818;stroke-width:1;"/><path d="M390.536,28.6406 Q389.9579,28.9375 389.3173,29.0781 Q388.6766,29.2344 387.9735,29.2344 Q385.4735,29.2344 384.1454,27.5938 Q382.8329,25.9375 382.8329,22.8125 Q382.8329,19.6875 384.1454,18.0313 Q385.4735,16.375 387.9735,16.375 Q388.6766,16.375 389.3173,16.5313 Q389.9735,16.6875 390.536,16.9844 L390.536,19.7031 Q389.911,19.125 389.3173,18.8594 Q388.7235,18.5781 388.0985,18.5781 Q386.7548,18.5781 386.0673,19.6563 Q385.3798,20.7188 385.3798,22.8125 Q385.3798,24.9063 386.0673,25.9844 Q386.7548,27.0469 388.0985,27.0469 Q388.7235,27.0469 389.3173,26.7813 Q389.911,26.5 390.536,25.9219 L390.536,28.6406 Z " fill="#000000"/><text fill="#000000" font-family="sans-serif" font-size="14" lengthAdjust="spacing" textLength="33.4209" x="408.0673" y="27.8467">Main</text><line style="stroke:#181818;stroke-width:0.5;" x1="309.12" x2="507.9354" y1="39" y2="39"/><text fill="#000000" font-family="sans-serif" font-size="14" lengthAdjust="spacing" text-decoration="underline" textLength="123.9287" x="314.12" y="55.9951">-mb: MagoBranco</text><text fill="#000000" font-family="sans-serif" font-size="14" lengthAdjust="spacing" text-decoration="underline" textLength="65.9668" x="314.12" y="72.292">-m: Mago</text><text fill="#000000" font-family="sans-serif" font-size="14" lengthAdjust="spacing" text-decoration="underline" textLength="74.874" x="314.12" y="88.5889">-m2: Mago</text><line style="stroke:#181818;stroke-width:0.5;" x1="309.12" x2="507.9354" y1="95.8906" y2="95.8906"/><text fill="#000000" font-family="sans-serif" font-size="14" lengthAdjust="spacing" text-decoration="underline" textLength="188.8154" x="314.12" y="112.8857">+main(args: String[]): void</text><text fill="#000000" font-family="sans-serif" font-size="14" lengthAdjust="spacing" text-decoration="underline" textLength="121.0508" x="314.12" y="129.1826">-inicializar(): void</text><text fill="#000000" font-family="sans-serif" font-size="14" lengthAdjust="spacing" text-decoration="underline" textLength="116.6758" x="314.12" y="145.4795">-executar(): void</text><text fill="#000000" font-family="sans-serif" font-size="14" lengthAdjust="spacing" text-decoration="underline" textLength="110.5029" x="314.12" y="161.7764">-finalizar(): void</text></g><!--reverse link Personagem to Mago--><g class="link" data-entity-1="ent0002" data-entity-2="ent0003" data-link-type="extension" data-source-line="43" id="lnk6"><path codeLine="43" d="M178.53,171.02 C178.53,198.92 178.53,214.36 178.53,245.73" fill="none" id="Personagem-backto-Mago" style="stroke:#181818;stroke-width:1;"/><polygon fill="none" points="178.53,153.02,172.53,171.02,184.53,171.02,178.53,153.02" style="stroke:#181818;stroke-width:1;"/><text fill="#000000" font-family="sans-serif" font-size="13" lengthAdjust="spacing" textLength="37.8003" x="179.53" y="212.1469">herda</text></g><!--reverse link Mago to MagoBranco--><g class="link" data-entity-1="ent0003" data-entity-2="ent0004" data-link-type="extension" data-source-line="44" id="lnk7"><path codeLine="44" d="M236.3741,473.6942 C248.5941,499.2942 253.65,509.86 264.97,533.56" fill="none" id="Mago-backto-MagoBranco" style="stroke:#181818;stroke-width:1;"/><polygon fill="none" points="228.62,457.45,230.9593,476.2789,241.7888,471.1095,228.62,457.45" style="stroke:#181818;stroke-width:1;"/><text fill="#000000" font-family="sans-serif" font-size="13" lengthAdjust="spacing" textLength="37.8003" x="251.53" y="500.1169">herda</text></g><!--link Main to Mago--><g class="link" data-entity-1="ent0005" data-entity-2="ent0003" data-link-type="dependency" data-source-line="45" id="lnk8"><path codeLine="45" d="M337.96,169.28 C316.7,193.46 297.012,215.8442 274.572,241.3642" fill="none" id="Main-to-Mago" style="stroke:#181818;stroke-width:1;stroke-dasharray:7,7;"/><polygon fill="#181818" points="270.61,245.87,279.5569,241.7526,273.9117,242.1151,273.5491,236.4699,270.61,245.87" style="stroke:#181818;stroke-width:1;"/><text fill="#000000" font-family="sans-serif" font-size="13" lengthAdjust="spacing" textLength="22.9785" x="307.53" y="212.1469">usa</text></g><!--link Main to MagoBranco--><g class="link" data-entity-1="ent0005" data-entity-2="ent0004" data-link-type="dependency" data-source-line="46" id="lnk9"><path codeLine="46" d="M406.88,169.38 C403.63,244.88 394.25,360.39 367.53,457.05 C360.38,482.93 351.7931,504.5703 340.5831,528.4103" fill="none" id="Main-to-MagoBranco" style="stroke:#181818;stroke-width:1;stroke-dasharray:7,7;"/><polygon fill="#181818" points="338.03,533.84,345.4795,527.3976,340.1576,529.3153,338.2399,523.9934,338.03,533.84" style="stroke:#181818;stroke-width:1;"/><text fill="#000000" font-family="sans-serif" font-size="13" lengthAdjust="spacing" textLength="22.9785" x="402.53" y="356.1269">usa</text></g><?plantuml-src bLEnJiCm4Dtp5PPOKhMf46E4a0eJ0wXIHiHmjQ_fYSHNsKw4MlhlcAH9dPGAcitllRjxz-pO3z9RC50AMO2r2-SChIg7pv9rHZiKjr7KC6A9nhA674knZuJ_ReJc4bEH-HAT7o5Ie3n6sXs1BMl7DeDg2DTKSofMp0M2Rh2fa1kKO387hhBn91KraueEtVmNoBcVZ5Po0OFPqqOHJy93Q70MU9kD6hH5YQT84XIq0xDeWs2x16M0UpzjTz0Ap0XRGt66aQxPx-JD48meY-xLsnju72foTCjJUZ_bNNx_oUhHW9PTOec_1uNcgJ8GTZdfhepgzssbRtz50d_jGBftlxTUHV8WobKQk3vZM_8ClWlmQO3x4J6Ot7RBlRs73eCEmSE8BqZm4sNbBlDhqgC6VjNWfxh_IfBsaQTYWqP1r1nw-7YV9zB7Cvy_T2ML7M6ztZFV?></g></svg>