<svg xmlns="http://www.w3.org/2000/svg" xmlns:xlink="http://www.w3.org/1999/xlink" contentStyleType="text/css" data-diagram-type="CLASS" height="62px" preserveAspectRatio="none" style="width:259px;height:62px;background:#FFFFFF;" version="1.1" viewBox="0 0 259 62" width="259px" zoomAndPan="magnify"><defs/><g><!--class Mago--><g class="entity" data-entity="Mago" data-source-line="1" data-uid="ent0002" id="entity_Mago"><rect fill="#F1F1F1" height="48" rx="2.5" ry="2.5" style="stroke:#181818;stroke-width:0.5;" width="70.1104" x="7" y="7"/><ellipse cx="22" cy="23" fill="#ADD1B2" rx="11" ry="11" style="stroke:#181818;stroke-width:1;"/><path d="M24.9688,28.6406 Q24.3906,28.9375 23.75,29.0781 Q23.1094,29.2344 22.4063,29.2344 Q19.9063,29.2344 18.5781,27.5938 Q17.2656,25.9375 17.2656,22.8125 Q17.2656,19.6875 18.5781,18.0313 Q19.9063,16.375 22.4063,16.375 Q23.1094,16.375 23.75,16.5313 Q24.4063,16.6875 24.9688,16.9844 L24.9688,19.7031 Q24.3438,19.125 23.75,18.8594 Q23.1563,18.5781 22.5313,18.5781 Q21.1875,18.5781 20.5,19.6563 Q19.8125,20.7188 19.8125,22.8125 Q19.8125,24.9063 20.5,25.9844 Q21.1875,27.0469 22.5313,27.0469 Q23.1563,27.0469 23.75,26.7813 Q24.3438,26.5 24.9688,25.9219 L24.9688,28.6406 Z " fill="#000000"/><text fill="#000000" font-family="sans-serif" font-size="14" lengthAdjust="spacing" textLength="38.1104" x="36" y="27.8467">Mago</text><line style="stroke:#181818;stroke-width:0.5;" x1="8" x2="76.1104" y1="39" y2="39"/><line style="stroke:#181818;stroke-width:0.5;" x1="8" x2="76.1104" y1="47" y2="47"/></g><!--class Item--><g class="entity" data-entity="Item" data-source-line="2" data-uid="ent0003" id="entity_Item"><rect fill="#F1F1F1" height="48" rx="2.5" ry="2.5" style="stroke:#181818;stroke-width:0.5;" width="63.8691" x="189.11" y="7"/><ellipse cx="204.11" cy="23" fill="#ADD1B2" rx="11" ry="11" style="stroke:#181818;stroke-width:1;"/><path d="M207.0788,28.6406 Q206.5006,28.9375 205.86,29.0781 Q205.2194,29.2344 204.5163,29.2344 Q202.0163,29.2344 200.6881,27.5938 Q199.3756,25.9375 199.3756,22.8125 Q199.3756,19.6875 200.6881,18.0313 Q202.0163,16.375 204.5163,16.375 Q205.2194,16.375 205.86,16.5313 Q206.5163,16.6875 207.0788,16.9844 L207.0788,19.7031 Q206.4538,19.125 205.86,18.8594 Q205.2663,18.5781 204.6413,18.5781 Q203.2975,18.5781 202.61,19.6563 Q201.9225,20.7188 201.9225,22.8125 Q201.9225,24.9063 202.61,25.9844 Q203.2975,27.0469 204.6413,27.0469 Q205.2663,27.0469 205.86,26.7813 Q206.4538,26.5 207.0788,25.9219 L207.0788,28.6406 Z " fill="#000000"/><text fill="#000000" font-family="sans-serif" font-size="14" lengthAdjust="spacing" textLength="31.8691" x="218.11" y="27.8467">Item</text><line style="stroke:#181818;stroke-width:0.5;" x1="190.11" x2="251.9791" y1="39" y2="39"/><line style="stroke:#181818;stroke-width:0.5;" x1="190.11" x2="251.9791" y1="47" y2="47"/></g><!--reverse link Mago to Item--><g class="link" data-entity-1="Mago" data-entity-2="Item" data-source-line="5" data-uid="lnk4" id="link_Mago_Item"><path codeLine="5" d="M89.6,31 C121.89,31 157.68,31 188.85,31" fill="none" id="Mago-backto-Item" style="stroke:#181818;stroke-width:1;"/><polygon fill="none" points="77.6,31,83.6,35,89.6,31,83.6,27,77.6,31" style="stroke:#181818;stroke-width:1;"/><text fill="#000000" font-family="sans-serif" font-size="13" lengthAdjust="spacing" textLength="50.7939" x="108.11" y="27.0669">tem um</text></g><!--SRC=[Iyv9B2vMy4rCp-TA1ZCzIr9pkN9IqqeKIl8LYZBJCqeKKZABKfDBClFpkDGL_C5g5PI0gXHASvKWoi52-RgwO9wL0aGE0000]--></g></svg>