<svg xmlns="http://www.w3.org/2000/svg" xmlns:xlink="http://www.w3.org/1999/xlink" contentStyleType="text/css" data-diagram-type="CLASS" height="70px" preserveAspectRatio="none" style="width:302px;height:70px;background:#FFFFFF;" version="1.1" viewBox="0 0 302 70" width="302px" zoomAndPan="magnify"><?plantuml 1.2026.3beta6?><defs/><g><!--class Druida--><g class="entity" data-qualified-name="Druida" data-source-line="1" id="ent0002"><rect fill="#F1F1F1" height="48" rx="2.5" ry="2.5" style="stroke:#181818;stroke-width:0.5;" width="78.7646" x="7" y="7"/><ellipse cx="22" cy="23" fill="#ADD1B2" rx="11" ry="11" style="stroke:#181818;stroke-width:1;"/><path d="M24.9688,28.6406 Q24.3906,28.9375 23.75,29.0781 Q23.1094,29.2344 22.4063,29.2344 Q19.9063,29.2344 18.5781,27.5938 Q17.2656,25.9375 17.2656,22.8125 Q17.2656,19.6875 18.5781,18.0313 Q19.9063,16.375 22.4063,16.375 Q23.1094,16.375 23.75,16.5313 Q24.4063,16.6875 24.9688,16.9844 L24.9688,19.7031 Q24.3438,19.125 23.75,18.8594 Q23.1563,18.5781 22.5313,18.5781 Q21.1875,18.5781 20.5,19.6563 Q19.8125,20.7188 19.8125,22.8125 Q19.8125,24.9063 20.5,25.9844 Q21.1875,27.0469 22.5313,27.0469 Q23.1563,27.0469 23.75,26.7813 Q24.3438,26.5 24.9688,25.9219 L24.9688,28.6406 Z " fill="#000000"/><text fill="#000000" font-family="sans-serif" font-size="14" lengthAdjust="spacing" textLength="46.7646" x="36" y="27.8467">Druida</text><line style="stroke:#181818;stroke-width:0.5;" x1="8" x2="84.7646" y1="39" y2="39"/><line style="stroke:#181818;stroke-width:0.5;" x1="8" x2="84.7646" y1="47" y2="47"/></g><!--class Familiar--><g class="entity" data-qualified-name="Familiar" data-source-line="2" id="ent0003"><rect fill="#F1F1F1" height="48" rx="2.5" ry="2.5" style="stroke:#181818;stroke-width:0.5;" width="88.2734" x="198.76" y="7"/><ellipse cx="213.76" cy="23" fill="#ADD1B2" rx="11" ry="11" style="stroke:#181818;stroke-width:1;"/><path d="M216.7288,28.6406 Q216.1506,28.9375 215.51,29.0781 Q214.8694,29.2344 214.1663,29.2344 Q211.6663,29.2344 210.3381,27.5938 Q209.0256,25.9375 209.0256,22.8125 Q209.0256,19.6875 210.3381,18.0313 Q211.6663,16.375 214.1663,16.375 Q214.8694,16.375 215.51,16.5313 Q216.1663,16.6875 216.7288,16.9844 L216.7288,19.7031 Q216.1038,19.125 215.51,18.8594 Q214.9163,18.5781 214.2913,18.5781 Q212.9475,18.5781 212.26,19.6563 Q211.5725,20.7188 211.5725,22.8125 Q211.5725,24.9063 212.26,25.9844 Q212.9475,27.0469 214.2913,27.0469 Q214.9163,27.0469 215.51,26.7813 Q216.1038,26.5 216.7288,25.9219 L216.7288,28.6406 Z " fill="#000000"/><text fill="#000000" font-family="sans-serif" font-size="14" lengthAdjust="spacing" textLength="56.2734" x="227.76" y="27.8467">Familiar</text><line style="stroke:#181818;stroke-width:0.5;" x1="199.76" x2="286.0334" y1="39" y2="39"/><line style="stroke:#181818;stroke-width:0.5;" x1="199.76" x2="286.0334" y1="47" y2="47"/></g><!--reverse link Druida to Familiar--><g class="link" data-entity-1="ent0002" data-entity-2="ent0003" data-link-type="aggregation" data-source-line="4" id="lnk4"><path codeLine="4" d="M97.81,31 C130.25,31 164.68,31 198.47,31" fill="none" id="Druida-backto-Familiar" style="stroke:#181818;stroke-width:1;"/><polygon fill="none" points="85.81,31,91.81,35,97.81,31,91.81,27,85.81,31" style="stroke:#181818;stroke-width:1;"/><text fill="#000000" font-family="sans-serif" font-size="13" lengthAdjust="spacing" textLength="51.4604" x="116.76" y="27.0669">aliado a</text></g><?plantuml-src Iyv9B2vMS2agpKn9v4e6SzmISpDpCXEBk79IqqeKIl8LYZBJCqeKKZABKfDBClFpk22g5V9rTU5g5QmK4e5qIhv28W00?></g></svg>