<svg xmlns="http://www.w3.org/2000/svg" xmlns:xlink="http://www.w3.org/1999/xlink" contentStyleType="text/css" data-diagram-type="CLASS" height="70px" preserveAspectRatio="none" style="width:250px;height:70px;background:#FFFFFF;" version="1.1" viewBox="0 0 250 70" width="250px" zoomAndPan="magnify"><?plantuml 1.2026.3beta6?><defs/><g><!--class Mago--><g class="entity" data-qualified-name="Mago" data-source-line="1" id="ent0002"><rect fill="#F1F1F1" height="48" rx="2.5" ry="2.5" style="stroke:#181818;stroke-width:0.5;" width="70.1104" x="7" y="7"/><ellipse cx="22" cy="23" fill="#ADD1B2" rx="11" ry="11" style="stroke:#181818;stroke-width:1;"/><path d="M24.9688,28.6406 Q24.3906,28.9375 23.75,29.0781 Q23.1094,29.2344 22.4063,29.2344 Q19.9063,29.2344 18.5781,27.5938 Q17.2656,25.9375 17.2656,22.8125 Q17.2656,19.6875 18.5781,18.0313 Q19.9063,16.375 22.4063,16.375 Q23.1094,16.375 23.75,16.5313 Q24.4063,16.6875 24.9688,16.9844 L24.9688,19.7031 Q24.3438,19.125 23.75,18.8594 Q23.1563,18.5781 22.5313,18.5781 Q21.1875,18.5781 20.5,19.6563 Q19.8125,20.7188 19.8125,22.8125 Q19.8125,24.9063 20.5,25.9844 Q21.1875,27.0469 22.5313,27.0469 Q23.1563,27.0469 23.75,26.7813 Q24.3438,26.5 24.9688,25.9219 L24.9688,28.6406 Z " fill="#000000"/><text fill="#000000" font-family="sans-serif" font-size="14" lengthAdjust="spacing" textLength="38.1104" x="36" y="27.8467">Mago</text><line style="stroke:#181818;stroke-width:0.5;" x1="8" x2="76.1104" y1="39" y2="39"/><line style="stroke:#181818;stroke-width:0.5;" x1="8" x2="76.1104" y1="47" y2="47"/></g><!--class Magia--><g class="entity" data-qualified-name="Magia" data-source-line="2" id="ent0003"><rect fill="#F1F1F1" height="48" rx="2.5" ry="2.5" style="stroke:#181818;stroke-width:0.5;" width="74.0137" x="161.11" y="7"/><ellipse cx="176.11" cy="23" fill="#ADD1B2" rx="11" ry="11" style="stroke:#181818;stroke-width:1;"/><path d="M179.0788,28.6406 Q178.5006,28.9375 177.86,29.0781 Q177.2194,29.2344 176.5163,29.2344 Q174.0163,29.2344 172.6881,27.5938 Q171.3756,25.9375 171.3756,22.8125 Q171.3756,19.6875 172.6881,18.0313 Q174.0163,16.375 176.5163,16.375 Q177.2194,16.375 177.86,16.5313 Q178.5163,16.6875 179.0788,16.9844 L179.0788,19.7031 Q178.4538,19.125 177.86,18.8594 Q177.2663,18.5781 176.6413,18.5781 Q175.2975,18.5781 174.61,19.6563 Q173.9225,20.7188 173.9225,22.8125 Q173.9225,24.9063 174.61,25.9844 Q175.2975,27.0469 176.6413,27.0469 Q177.2663,27.0469 177.86,26.7813 Q178.4538,26.5 179.0788,25.9219 L179.0788,28.6406 Z " fill="#000000"/><text fill="#000000" font-family="sans-serif" font-size="14" lengthAdjust="spacing" textLength="42.0137" x="190.11" y="27.8467">Magia</text><line style="stroke:#181818;stroke-width:0.5;" x1="162.11" x2="234.1237" y1="39" y2="39"/><line style="stroke:#181818;stroke-width:0.5;" x1="162.11" x2="234.1237" y1="47" y2="47"/></g><!--link Mago to Magia--><g class="link" data-entity-1="ent0002" data-entity-2="ent0003" data-link-type="dependency" data-source-line="4" id="lnk4"><path codeLine="4" d="M77.25,31 C102.07,31 129.59,31 154.87,31" fill="none" id="Mago-to-Magia" style="stroke:#181818;stroke-width:1;"/><polygon fill="#181818" points="160.87,31,151.87,27,155.87,31,151.87,35,160.87,31" style="stroke:#181818;stroke-width:1;"/><text fill="#000000" font-family="sans-serif" font-size="13" lengthAdjust="spacing" textLength="22.9785" x="108.11" y="27.0669">usa</text></g><?plantuml-src Iyv9B2vMy4rCp-TAXZ4p4xboKjDA54ho5OeoqpDA558oYrAJIpBpyxX02XLqTUqWoXIi54gB4m40?></g></svg>