<svg xmlns="http://www.w3.org/2000/svg" xmlns:xlink="http://www.w3.org/1999/xlink" contentStyleType="text/css" data-diagram-type="CLASS" height="62px" preserveAspectRatio="none" style="width:181px;height:62px;background:#FFFFFF;" version="1.1" viewBox="0 0 181 62" width="181px" zoomAndPan="magnify"><defs/><g><!--class A--><g class="entity" data-entity="A" data-source-line="2" data-uid="ent0002" id="entity_A"><rect fill="#F1F1F1" height="48" rx="2.5" ry="2.5" style="stroke:#181818;stroke-width:0.5;" width="41.5771" x="7" y="7"/><ellipse cx="22" cy="23" fill="#ADD1B2" rx="11" ry="11" style="stroke:#181818;stroke-width:1;"/><path d="M24.9688,28.6406 Q24.3906,28.9375 23.75,29.0781 Q23.1094,29.2344 22.4063,29.2344 Q19.9063,29.2344 18.5781,27.5938 Q17.2656,25.9375 17.2656,22.8125 Q17.2656,19.6875 18.5781,18.0313 Q19.9063,16.375 22.4063,16.375 Q23.1094,16.375 23.75,16.5313 Q24.4063,16.6875 24.9688,16.9844 L24.9688,19.7031 Q24.3438,19.125 23.75,18.8594 Q23.1563,18.5781 22.5313,18.5781 Q21.1875,18.5781 20.5,19.6563 Q19.8125,20.7188 19.8125,22.8125 Q19.8125,24.9063 20.5,25.9844 Q21.1875,27.0469 22.5313,27.0469 Q23.1563,27.0469 23.75,26.7813 Q24.3438,26.5 24.9688,25.9219 L24.9688,28.6406 Z " fill="#000000"/><text fill="#000000" font-family="sans-serif" font-size="14" lengthAdjust="spacing" textLength="9.5771" x="36" y="27.8467">A</text><line style="stroke:#181818;stroke-width:0.5;" x1="8" x2="47.5771" y1="39" y2="39"/><line style="stroke:#181818;stroke-width:0.5;" x1="8" x2="47.5771" y1="47" y2="47"/></g><!--class B--><g class="entity" data-entity="B" data-source-line="3" data-uid="ent0003" id="entity_B"><rect fill="#F1F1F1" height="48" rx="2.5" ry="2.5" style="stroke:#181818;stroke-width:0.5;" width="41.6045" x="132.58" y="7"/><ellipse cx="147.58" cy="23" fill="#ADD1B2" rx="11" ry="11" style="stroke:#181818;stroke-width:1;"/><path d="M150.5487,28.6406 Q149.9706,28.9375 149.33,29.0781 Q148.6894,29.2344 147.9862,29.2344 Q145.4862,29.2344 144.1581,27.5938 Q142.8456,25.9375 142.8456,22.8125 Q142.8456,19.6875 144.1581,18.0313 Q145.4862,16.375 147.9862,16.375 Q148.6894,16.375 149.33,16.5313 Q149.9862,16.6875 150.5487,16.9844 L150.5487,19.7031 Q149.9237,19.125 149.33,18.8594 Q148.7362,18.5781 148.1112,18.5781 Q146.7675,18.5781 146.08,19.6563 Q145.3925,20.7188 145.3925,22.8125 Q145.3925,24.9063 146.08,25.9844 Q146.7675,27.0469 148.1112,27.0469 Q148.7362,27.0469 149.33,26.7813 Q149.9237,26.5 150.5487,25.9219 L150.5487,28.6406 Z " fill="#000000"/><text fill="#000000" font-family="sans-serif" font-size="14" lengthAdjust="spacing" textLength="9.6045" x="161.58" y="27.8467">B</text><line style="stroke:#181818;stroke-width:0.5;" x1="133.58" x2="173.1845" y1="39" y2="39"/><line style="stroke:#181818;stroke-width:0.5;" x1="133.58" x2="173.1845" y1="47" y2="47"/></g><!--link A to B--><g class="link" data-entity-1="A" data-entity-2="B" data-source-line="4" data-uid="lnk4" id="link_A_B"><path codeLine="4" d="M48.92,31 C71.9,31 103.28,31 126.26,31" fill="none" id="A-to-B" style="stroke:#181818;stroke-width:1;"/><polygon fill="#181818" points="132.26,31,123.26,27,127.26,31,123.26,35,132.26,31" style="stroke:#181818;stroke-width:1;"/><text fill="#000000" font-family="sans-serif" font-size="13" lengthAdjust="spacing" textLength="22.9785" x="79.58" y="27.0669">usa</text></g><!--SRC=[oqbDAr4eoLSeoapFA558oInAJIx9pC_ZIiv9B2vMS8JIJboE2hgwTWfE2bOAfSM90000]--></g></svg>