<svg xmlns="http://www.w3.org/2000/svg" xmlns:xlink="http://www.w3.org/1999/xlink" contentStyleType="text/css" data-diagram-type="CLASS" height="62px" preserveAspectRatio="none" style="width:419px;height:62px;background:#FFFFFF;" version="1.1" viewBox="0 0 419 62" width="419px" zoomAndPan="magnify"><defs/><g><!--class Mago--><g class="entity" data-entity="Mago" data-source-line="1" data-uid="ent0002" id="entity_Mago"><rect fill="#F1F1F1" height="48" rx="2.5" ry="2.5" style="stroke:#181818;stroke-width:0.5;" width="70.1104" x="7" y="7"/><ellipse cx="22" cy="23" fill="#ADD1B2" rx="11" ry="11" style="stroke:#181818;stroke-width:1;"/><path d="M24.9688,28.6406 Q24.3906,28.9375 23.75,29.0781 Q23.1094,29.2344 22.4063,29.2344 Q19.9063,29.2344 18.5781,27.5938 Q17.2656,25.9375 17.2656,22.8125 Q17.2656,19.6875 18.5781,18.0313 Q19.9063,16.375 22.4063,16.375 Q23.1094,16.375 23.75,16.5313 Q24.4063,16.6875 24.9688,16.9844 L24.9688,19.7031 Q24.3438,19.125 23.75,18.8594 Q23.1563,18.5781 22.5313,18.5781 Q21.1875,18.5781 20.5,19.6563 Q19.8125,20.7188 19.8125,22.8125 Q19.8125,24.9063 20.5,25.9844 Q21.1875,27.0469 22.5313,27.0469 Q23.1563,27.0469 23.75,26.7813 Q24.3438,26.5 24.9688,25.9219 L24.9688,28.6406 Z " fill="#000000"/><text fill="#000000" font-family="sans-serif" font-size="14" lengthAdjust="spacing" textLength="38.1104" x="36" y="27.8467">Mago</text><line style="stroke:#181818;stroke-width:0.5;" x1="8" x2="76.1104" y1="39" y2="39"/><line style="stroke:#181818;stroke-width:0.5;" x1="8" x2="76.1104" y1="47" y2="47"/></g><!--class Magia--><g class="entity" data-entity="Magia" data-source-line="2" data-uid="ent0003" id="entity_Magia"><rect fill="#F1F1F1" height="48" rx="2.5" ry="2.5" style="stroke:#181818;stroke-width:0.5;" width="74.0137" x="161.11" y="7"/><ellipse cx="176.11" cy="23" fill="#ADD1B2" rx="11" ry="11" style="stroke:#181818;stroke-width:1;"/><path d="M179.0788,28.6406 Q178.5006,28.9375 177.86,29.0781 Q177.2194,29.2344 176.5163,29.2344 Q174.0163,29.2344 172.6881,27.5938 Q171.3756,25.9375 171.3756,22.8125 Q171.3756,19.6875 172.6881,18.0313 Q174.0163,16.375 176.5163,16.375 Q177.2194,16.375 177.86,16.5313 Q178.5163,16.6875 179.0788,16.9844 L179.0788,19.7031 Q178.4538,19.125 177.86,18.8594 Q177.2663,18.5781 176.6413,18.5781 Q175.2975,18.5781 174.61,19.6563 Q173.9225,20.7188 173.9225,22.8125 Q173.9225,24.9063 174.61,25.9844 Q175.2975,27.0469 176.6413,27.0469 Q177.2663,27.0469 177.86,26.7813 Q178.4538,26.5 179.0788,25.9219 L179.0788,28.6406 Z " fill="#000000"/><text fill="#000000" font-family="sans-serif" font-size="14" lengthAdjust="spacing" textLength="42.0137" x="190.11" y="27.8467">Magia</text><line style="stroke:#181818;stroke-width:0.5;" x1="162.11" x2="234.1237" y1="39" y2="39"/><line style="stroke:#181818;stroke-width:0.5;" x1="162.11" x2="234.1237" y1="47" y2="47"/></g><!--class BolaDeFogo--><g class="entity" data-entity="BolaDeFogo" data-source-line="3" data-uid="ent0004" id="entity_BolaDeFogo"><rect fill="#F1F1F1" height="48" rx="2.5" ry="2.5" style="stroke:#181818;stroke-width:0.5;" width="116.1025" x="296.12" y="7"/><ellipse cx="311.12" cy="23" fill="#ADD1B2" rx="11" ry="11" style="stroke:#181818;stroke-width:1;"/><path d="M314.0888,28.6406 Q313.5106,28.9375 312.87,29.0781 Q312.2294,29.2344 311.5263,29.2344 Q309.0263,29.2344 307.6981,27.5938 Q306.3856,25.9375 306.3856,22.8125 Q306.3856,19.6875 307.6981,18.0313 Q309.0263,16.375 311.5263,16.375 Q312.2294,16.375 312.87,16.5313 Q313.5263,16.6875 314.0888,16.9844 L314.0888,19.7031 Q313.4638,19.125 312.87,18.8594 Q312.2763,18.5781 311.6513,18.5781 Q310.3075,18.5781 309.62,19.6563 Q308.9325,20.7188 308.9325,22.8125 Q308.9325,24.9063 309.62,25.9844 Q310.3075,27.0469 311.6513,27.0469 Q312.2763,27.0469 312.87,26.7813 Q313.4638,26.5 314.0888,25.9219 L314.0888,28.6406 Z " fill="#000000"/><text fill="#000000" font-family="sans-serif" font-size="14" lengthAdjust="spacing" textLength="84.1025" x="325.12" y="27.8467">BolaDeFogo</text><line style="stroke:#181818;stroke-width:0.5;" x1="297.12" x2="411.2225" y1="39" y2="39"/><line style="stroke:#181818;stroke-width:0.5;" x1="297.12" x2="411.2225" y1="47" y2="47"/></g><!--reverse link Magia to BolaDeFogo--><g class="link" data-entity-1="Magia" data-entity-2="BolaDeFogo" data-source-line="5" data-uid="lnk5" id="link_Magia_BolaDeFogo"><path codeLine="5" d="M253.24,31 C271.29,31 275.57,31 295.88,31" fill="none" id="Magia-backto-BolaDeFogo" style="stroke:#181818;stroke-width:1;"/><polygon fill="none" points="235.24,31,253.24,37,253.24,25,235.24,31" style="stroke:#181818;stroke-width:1;"/></g><!--link Mago to Magia--><g class="link" data-entity-1="Mago" data-entity-2="Magia" data-source-line="7" data-uid="lnk6" id="link_Mago_Magia"><path codeLine="7" d="M77.25,31 C102.07,31 129.59,31 154.87,31" fill="none" id="Mago-to-Magia" style="stroke:#181818;stroke-width:1;"/><polygon fill="#181818" points="160.87,31,151.87,27,155.87,31,151.87,35,160.87,31" style="stroke:#181818;stroke-width:1;"/><text fill="#000000" font-family="sans-serif" font-size="13" lengthAdjust="spacing" textLength="22.9785" x="108.11" y="27.0669">usa</text></g><!--SRC=[Iyv9B2vMy4rCp-TAXZ4p4w5if_oSH9TKjtoW91TONC6cHbSNMJWdDQr4eIHVeIWpFQD48IMpA3Mv93C_3wGwNq5NrmvYd8ALGcbn8W00]--></g></svg>