<svg xmlns="http://www.w3.org/2000/svg" xmlns:xlink="http://www.w3.org/1999/xlink" contentStyleType="text/css" data-diagram-type="CLASS" height="62px" preserveAspectRatio="none" style="width:285px;height:62px;background:#FFFFFF;" version="1.1" viewBox="0 0 285 62" width="285px" zoomAndPan="magnify"><defs/><g><!--class Druida--><g class="entity" data-entity="Druida" data-source-line="1" data-uid="ent0002" id="entity_Druida"><rect fill="#F1F1F1" height="48" rx="2.5" ry="2.5" style="stroke:#181818;stroke-width:0.5;" width="78.7646" x="7" y="7"/><ellipse cx="22" cy="23" fill="#ADD1B2" rx="11" ry="11" style="stroke:#181818;stroke-width:1;"/><path d="M24.9688,28.6406 Q24.3906,28.9375 23.75,29.0781 Q23.1094,29.2344 22.4063,29.2344 Q19.9063,29.2344 18.5781,27.5938 Q17.2656,25.9375 17.2656,22.8125 Q17.2656,19.6875 18.5781,18.0313 Q19.9063,16.375 22.4063,16.375 Q23.1094,16.375 23.75,16.5313 Q24.4063,16.6875 24.9688,16.9844 L24.9688,19.7031 Q24.3438,19.125 23.75,18.8594 Q23.1563,18.5781 22.5313,18.5781 Q21.1875,18.5781 20.5,19.6563 Q19.8125,20.7188 19.8125,22.8125 Q19.8125,24.9063 20.5,25.9844 Q21.1875,27.0469 22.5313,27.0469 Q23.1563,27.0469 23.75,26.7813 Q24.3438,26.5 24.9688,25.9219 L24.9688,28.6406 Z " fill="#000000"/><text fill="#000000" font-family="sans-serif" font-size="14" lengthAdjust="spacing" textLength="46.7646" x="36" y="27.8467">Druida</text><line style="stroke:#181818;stroke-width:0.5;" x1="8" x2="84.7646" y1="39" y2="39"/><line style="stroke:#181818;stroke-width:0.5;" x1="8" x2="84.7646" y1="47" y2="47"/></g><!--class Familiar--><g class="entity" data-entity="Familiar" data-source-line="2" data-uid="ent0003" id="entity_Familiar"><rect fill="#F1F1F1" height="48" rx="2.5" ry="2.5" style="stroke:#181818;stroke-width:0.5;" width="88.2734" x="189.76" y="7"/><ellipse cx="204.76" cy="23" fill="#ADD1B2" rx="11" ry="11" style="stroke:#181818;stroke-width:1;"/><path d="M207.7288,28.6406 Q207.1506,28.9375 206.51,29.0781 Q205.8694,29.2344 205.1663,29.2344 Q202.6663,29.2344 201.3381,27.5938 Q200.0256,25.9375 200.0256,22.8125 Q200.0256,19.6875 201.3381,18.0313 Q202.6663,16.375 205.1663,16.375 Q205.8694,16.375 206.51,16.5313 Q207.1663,16.6875 207.7288,16.9844 L207.7288,19.7031 Q207.1038,19.125 206.51,18.8594 Q205.9163,18.5781 205.2913,18.5781 Q203.9475,18.5781 203.26,19.6563 Q202.5725,20.7188 202.5725,22.8125 Q202.5725,24.9063 203.26,25.9844 Q203.9475,27.0469 205.2913,27.0469 Q205.9163,27.0469 206.51,26.7813 Q207.1038,26.5 207.7288,25.9219 L207.7288,28.6406 Z " fill="#000000"/><text fill="#000000" font-family="sans-serif" font-size="14" lengthAdjust="spacing" textLength="56.2734" x="218.76" y="27.8467">Familiar</text><line style="stroke:#181818;stroke-width:0.5;" x1="190.76" x2="277.0334" y1="39" y2="39"/><line style="stroke:#181818;stroke-width:0.5;" x1="190.76" x2="277.0334" y1="47" y2="47"/></g><!--link Druida to Familiar--><g class="link" data-entity-1="Druida" data-entity-2="Familiar" data-source-line="4" data-uid="lnk4" id="link_Druida_Familiar"><path codeLine="4" d="M85.82,31 C115.96,31 151.92,31 183.31,31" fill="none" id="Druida-to-Familiar" style="stroke:#181818;stroke-width:1;"/><polygon fill="#181818" points="189.31,31,180.31,27,184.31,31,180.31,35,189.31,31" style="stroke:#181818;stroke-width:1;"/><text fill="#000000" font-family="sans-serif" font-size="13" lengthAdjust="spacing" textLength="42.6118" x="116.76" y="27.0669">invoca</text></g><!--SRC=[Iyv9B2vMS2agpKn9v4e6SzmISpDpCXEBk79IqqeKIl8LYZBJCqeKKZABKfDBClFpk22g5NHrxU1g5QmKClFAyfCJ0G00]--></g></svg>