<svg xmlns="http://www.w3.org/2000/svg" xmlns:xlink="http://www.w3.org/1999/xlink" contentStyleType="text/css" data-diagram-type="CLASS" height="62px" preserveAspectRatio="none" style="width:409px;height:62px;background:#FFFFFF;" version="1.1" viewBox="0 0 409 62" width="409px" zoomAndPan="magnify"><defs/><g><!--class Druida--><g class="entity" data-entity="Druida" data-source-line="1" data-uid="ent0002" id="entity_Druida"><rect fill="#F1F1F1" height="48" rx="2.5" ry="2.5" style="stroke:#181818;stroke-width:0.5;" width="78.7646" x="7" y="7"/><ellipse cx="22" cy="23" fill="#ADD1B2" rx="11" ry="11" style="stroke:#181818;stroke-width:1;"/><path d="M24.9688,28.6406 Q24.3906,28.9375 23.75,29.0781 Q23.1094,29.2344 22.4063,29.2344 Q19.9063,29.2344 18.5781,27.5938 Q17.2656,25.9375 17.2656,22.8125 Q17.2656,19.6875 18.5781,18.0313 Q19.9063,16.375 22.4063,16.375 Q23.1094,16.375 23.75,16.5313 Q24.4063,16.6875 24.9688,16.9844 L24.9688,19.7031 Q24.3438,19.125 23.75,18.8594 Q23.1563,18.5781 22.5313,18.5781 Q21.1875,18.5781 20.5,19.6563 Q19.8125,20.7188 19.8125,22.8125 Q19.8125,24.9063 20.5,25.9844 Q21.1875,27.0469 22.5313,27.0469 Q23.1563,27.0469 23.75,26.7813 Q24.3438,26.5 24.9688,25.9219 L24.9688,28.6406 Z " fill="#000000"/><text fill="#000000" font-family="sans-serif" font-size="14" lengthAdjust="spacing" textLength="46.7646" x="36" y="27.8467">Druida</text><line style="stroke:#181818;stroke-width:0.5;" x1="8" x2="84.7646" y1="39" y2="39"/><line style="stroke:#181818;stroke-width:0.5;" x1="8" x2="84.7646" y1="47" y2="47"/></g><!--class FamiliarVinculado--><g class="entity" data-entity="FamiliarVinculado" data-source-line="2" data-uid="ent0003" id="entity_FamiliarVinculado"><rect fill="#F1F1F1" height="48" rx="2.5" ry="2.5" style="stroke:#181818;stroke-width:0.5;" width="157.1045" x="245.76" y="7"/><ellipse cx="260.76" cy="23" fill="#ADD1B2" rx="11" ry="11" style="stroke:#181818;stroke-width:1;"/><path d="M263.7288,28.6406 Q263.1506,28.9375 262.51,29.0781 Q261.8694,29.2344 261.1663,29.2344 Q258.6663,29.2344 257.3381,27.5938 Q256.0256,25.9375 256.0256,22.8125 Q256.0256,19.6875 257.3381,18.0313 Q258.6663,16.375 261.1663,16.375 Q261.8694,16.375 262.51,16.5313 Q263.1663,16.6875 263.7288,16.9844 L263.7288,19.7031 Q263.1038,19.125 262.51,18.8594 Q261.9163,18.5781 261.2913,18.5781 Q259.9475,18.5781 259.26,19.6563 Q258.5725,20.7188 258.5725,22.8125 Q258.5725,24.9063 259.26,25.9844 Q259.9475,27.0469 261.2913,27.0469 Q261.9163,27.0469 262.51,26.7813 Q263.1038,26.5 263.7288,25.9219 L263.7288,28.6406 Z " fill="#000000"/><text fill="#000000" font-family="sans-serif" font-size="14" lengthAdjust="spacing" textLength="125.1045" x="274.76" y="27.8467">FamiliarVinculado</text><line style="stroke:#181818;stroke-width:0.5;" x1="246.76" x2="401.8645" y1="39" y2="39"/><line style="stroke:#181818;stroke-width:0.5;" x1="246.76" x2="401.8645" y1="47" y2="47"/></g><!--reverse link Druida to FamiliarVinculado--><g class="link" data-entity-1="Druida" data-entity-2="FamiliarVinculado" data-source-line="4" data-uid="lnk4" id="link_Druida_FamiliarVinculado"><path codeLine="4" d="M98.04,31 C139.2,31 193.44,31 245.49,31" fill="none" id="Druida-backto-FamiliarVinculado" style="stroke:#181818;stroke-width:1;"/><polygon fill="#181818" points="86.04,31,92.04,35,98.04,31,92.04,27,86.04,31" style="stroke:#181818;stroke-width:1;"/><text fill="#000000" font-family="sans-serif" font-size="13" lengthAdjust="spacing" textLength="98.2236" x="116.76" y="27.0669">vinculo magico</text></g><!--SRC=[PSin3e0W34RXdLDqDk42piOZk3S5yKyAJGfwVXCStTuRFb7kdJQ_aJZ8d9qh5Em7cjpAoOBcSz0mSfHhK89d6R0MFaPBZ7z4ApspZIeNYBq0]--></g></svg>