<svg xmlns="http://www.w3.org/2000/svg" xmlns:xlink="http://www.w3.org/1999/xlink" contentStyleType="text/css" data-diagram-type="CLASS" height="62px" preserveAspectRatio="none" style="width:297px;height:62px;background:#FFFFFF;" version="1.1" viewBox="0 0 297 62" width="297px" zoomAndPan="magnify"><defs/><g><!--class Mago--><g class="entity" data-entity="Mago" data-source-line="1" data-uid="ent0002" id="entity_Mago"><rect fill="#F1F1F1" height="48" rx="2.5" ry="2.5" style="stroke:#181818;stroke-width:0.5;" width="70.1104" x="7" y="7"/><ellipse cx="22" cy="23" fill="#ADD1B2" rx="11" ry="11" style="stroke:#181818;stroke-width:1;"/><path d="M24.9688,28.6406 Q24.3906,28.9375 23.75,29.0781 Q23.1094,29.2344 22.4063,29.2344 Q19.9063,29.2344 18.5781,27.5938 Q17.2656,25.9375 17.2656,22.8125 Q17.2656,19.6875 18.5781,18.0313 Q19.9063,16.375 22.4063,16.375 Q23.1094,16.375 23.75,16.5313 Q24.4063,16.6875 24.9688,16.9844 L24.9688,19.7031 Q24.3438,19.125 23.75,18.8594 Q23.1563,18.5781 22.5313,18.5781 Q21.1875,18.5781 20.5,19.6563 Q19.8125,20.7188 19.8125,22.8125 Q19.8125,24.9063 20.5,25.9844 Q21.1875,27.0469 22.5313,27.0469 Q23.1563,27.0469 23.75,26.7813 Q24.3438,26.5 24.9688,25.9219 L24.9688,28.6406 Z " fill="#000000"/><text fill="#000000" font-family="sans-serif" font-size="14" lengthAdjust="spacing" textLength="38.1104" x="36" y="27.8467">Mago</text><line style="stroke:#181818;stroke-width:0.5;" x1="8" x2="76.1104" y1="39" y2="39"/><line style="stroke:#181818;stroke-width:0.5;" x1="8" x2="76.1104" y1="47" y2="47"/></g><!--class Feiticeiro--><g class="entity" data-entity="Feiticeiro" data-source-line="2" data-uid="ent0003" id="entity_Feiticeiro"><rect fill="#F1F1F1" height="48" rx="2.5" ry="2.5" style="stroke:#181818;stroke-width:0.5;" width="96.4561" x="194.11" y="7"/><ellipse cx="209.11" cy="23" fill="#ADD1B2" rx="11" ry="11" style="stroke:#181818;stroke-width:1;"/><path d="M212.0788,28.6406 Q211.5006,28.9375 210.86,29.0781 Q210.2194,29.2344 209.5163,29.2344 Q207.0163,29.2344 205.6881,27.5938 Q204.3756,25.9375 204.3756,22.8125 Q204.3756,19.6875 205.6881,18.0313 Q207.0163,16.375 209.5163,16.375 Q210.2194,16.375 210.86,16.5313 Q211.5163,16.6875 212.0788,16.9844 L212.0788,19.7031 Q211.4538,19.125 210.86,18.8594 Q210.2663,18.5781 209.6413,18.5781 Q208.2975,18.5781 207.61,19.6563 Q206.9225,20.7188 206.9225,22.8125 Q206.9225,24.9063 207.61,25.9844 Q208.2975,27.0469 209.6413,27.0469 Q210.2663,27.0469 210.86,26.7813 Q211.4538,26.5 212.0788,25.9219 L212.0788,28.6406 Z " fill="#000000"/><text fill="#000000" font-family="sans-serif" font-size="14" lengthAdjust="spacing" textLength="64.4561" x="223.11" y="27.8467">Feiticeiro</text><line style="stroke:#181818;stroke-width:0.5;" x1="195.11" x2="289.5661" y1="39" y2="39"/><line style="stroke:#181818;stroke-width:0.5;" x1="195.11" x2="289.5661" y1="47" y2="47"/></g><!--link Mago to Feiticeiro--><g class="link" data-entity-1="Mago" data-entity-2="Feiticeiro" data-source-line="4" data-uid="lnk4" id="link_Mago_Feiticeiro"><path codeLine="4" d="M77.59,31 C109.77,31 152.03,31 187.83,31" fill="none" id="Mago-to-Feiticeiro" style="stroke:#181818;stroke-width:1;stroke-dasharray:7,7;"/><polygon fill="#181818" points="193.83,31,184.83,27,188.83,31,184.83,35,193.83,31" style="stroke:#181818;stroke-width:1;"/><text fill="#000000" font-family="sans-serif" font-size="13" lengthAdjust="spacing" textLength="55.0278" x="108.11" y="27.0669">consulta</text></g><!--SRC=[Iyv9B2vMy4rCp-TA1ZFTKZDBCfDJCulokN9IqqeKIl8LYZBJCqeKKZABKfDBClFpk42g5VJqx93KAbWf9EVd5PVcb2G20000]--></g></svg>