<svg xmlns="http://www.w3.org/2000/svg" xmlns:xlink="http://www.w3.org/1999/xlink" contentStyleType="text/css" data-diagram-type="CLASS" height="62px" preserveAspectRatio="none" style="width:388px;height:62px;background:#FFFFFF;" version="1.1" viewBox="0 0 388 62" width="388px" zoomAndPan="magnify"><defs/><g><!--class Alquimista--><g class="entity" data-entity="Alquimista" data-source-line="1" data-uid="ent0002" id="entity_Alquimista"><rect fill="#F1F1F1" height="48" rx="2.5" ry="2.5" style="stroke:#181818;stroke-width:0.5;" width="106.0059" x="7" y="7"/><ellipse cx="22" cy="23" fill="#ADD1B2" rx="11" ry="11" style="stroke:#181818;stroke-width:1;"/><path d="M24.9688,28.6406 Q24.3906,28.9375 23.75,29.0781 Q23.1094,29.2344 22.4063,29.2344 Q19.9063,29.2344 18.5781,27.5938 Q17.2656,25.9375 17.2656,22.8125 Q17.2656,19.6875 18.5781,18.0313 Q19.9063,16.375 22.4063,16.375 Q23.1094,16.375 23.75,16.5313 Q24.4063,16.6875 24.9688,16.9844 L24.9688,19.7031 Q24.3438,19.125 23.75,18.8594 Q23.1563,18.5781 22.5313,18.5781 Q21.1875,18.5781 20.5,19.6563 Q19.8125,20.7188 19.8125,22.8125 Q19.8125,24.9063 20.5,25.9844 Q21.1875,27.0469 22.5313,27.0469 Q23.1563,27.0469 23.75,26.7813 Q24.3438,26.5 24.9688,25.9219 L24.9688,28.6406 Z " fill="#000000"/><text fill="#000000" font-family="sans-serif" font-size="14" lengthAdjust="spacing" textLength="74.0059" x="36" y="27.8467">Alquimista</text><line style="stroke:#181818;stroke-width:0.5;" x1="8" x2="112.0059" y1="39" y2="39"/><line style="stroke:#181818;stroke-width:0.5;" x1="8" x2="112.0059" y1="47" y2="47"/></g><!--class Ingrediente--><g class="entity" data-entity="Ingrediente" data-source-line="2" data-uid="ent0003" id="entity_Ingrediente"><rect fill="#F1F1F1" height="48" rx="2.5" ry="2.5" style="stroke:#181818;stroke-width:0.5;" width="112.623" x="269.01" y="7"/><ellipse cx="284.01" cy="23" fill="#ADD1B2" rx="11" ry="11" style="stroke:#181818;stroke-width:1;"/><path d="M286.9788,28.6406 Q286.4006,28.9375 285.76,29.0781 Q285.1194,29.2344 284.4163,29.2344 Q281.9163,29.2344 280.5881,27.5938 Q279.2756,25.9375 279.2756,22.8125 Q279.2756,19.6875 280.5881,18.0313 Q281.9163,16.375 284.4163,16.375 Q285.1194,16.375 285.76,16.5313 Q286.4163,16.6875 286.9788,16.9844 L286.9788,19.7031 Q286.3538,19.125 285.76,18.8594 Q285.1663,18.5781 284.5413,18.5781 Q283.1975,18.5781 282.51,19.6563 Q281.8225,20.7188 281.8225,22.8125 Q281.8225,24.9063 282.51,25.9844 Q283.1975,27.0469 284.5413,27.0469 Q285.1663,27.0469 285.76,26.7813 Q286.3538,26.5 286.9788,25.9219 L286.9788,28.6406 Z " fill="#000000"/><text fill="#000000" font-family="sans-serif" font-size="14" lengthAdjust="spacing" textLength="80.623" x="298.01" y="27.8467">Ingrediente</text><line style="stroke:#181818;stroke-width:0.5;" x1="270.01" x2="380.633" y1="39" y2="39"/><line style="stroke:#181818;stroke-width:0.5;" x1="270.01" x2="380.633" y1="47" y2="47"/></g><!--link Alquimista to Ingrediente--><g class="link" data-entity-1="Alquimista" data-entity-2="Ingrediente" data-source-line="4" data-uid="lnk4" id="link_Alquimista_Ingrediente"><path codeLine="4" d="M113.34,31 C158.33,31 217.03,31 262.9,31" fill="none" id="Alquimista-to-Ingrediente" style="stroke:#181818;stroke-width:1;stroke-dasharray:7,7;"/><polygon fill="#181818" points="268.9,31,259.9,27,263.9,31,259.9,35,268.9,31" style="stroke:#181818;stroke-width:1;"/><text fill="#000000" font-family="sans-serif" font-size="13" lengthAdjust="spacing" textLength="94.5293" x="144.01" y="27.0669">prepara po&#231;&#227;o</text></g><!--SRC=[Iyv9B2vMSCmfBCtCpImkIUHA1WjuvgKNfQPafkQLf7BbfAQLA9JaAnHbfcUKAAHa5gKcbsJcvt4XD2dewTaXQr6mKYWeIYr8B4fKACW_lFpmudm0]--></g></svg>