<svg xmlns="http://www.w3.org/2000/svg" xmlns:xlink="http://www.w3.org/1999/xlink" contentStyleType="text/css" data-diagram-type="CLASS" height="62px" preserveAspectRatio="none" style="width:300px;height:62px;background:#FFFFFF;" version="1.1" viewBox="0 0 300 62" width="300px" zoomAndPan="magnify"><defs/><g><!--class A--><g class="entity" data-entity="A" data-source-line="1" data-uid="ent0002" id="entity_A"><rect fill="#F1F1F1" height="48" rx="2.5" ry="2.5" style="stroke:#181818;stroke-width:0.5;" width="41.5771" x="7" y="7"/><ellipse cx="22" cy="23" fill="#ADD1B2" rx="11" ry="11" style="stroke:#181818;stroke-width:1;"/><path d="M24.9688,28.6406 Q24.3906,28.9375 23.75,29.0781 Q23.1094,29.2344 22.4063,29.2344 Q19.9063,29.2344 18.5781,27.5938 Q17.2656,25.9375 17.2656,22.8125 Q17.2656,19.6875 18.5781,18.0313 Q19.9063,16.375 22.4063,16.375 Q23.1094,16.375 23.75,16.5313 Q24.4063,16.6875 24.9688,16.9844 L24.9688,19.7031 Q24.3438,19.125 23.75,18.8594 Q23.1563,18.5781 22.5313,18.5781 Q21.1875,18.5781 20.5,19.6563 Q19.8125,20.7188 19.8125,22.8125 Q19.8125,24.9063 20.5,25.9844 Q21.1875,27.0469 22.5313,27.0469 Q23.1563,27.0469 23.75,26.7813 Q24.3438,26.5 24.9688,25.9219 L24.9688,28.6406 Z " fill="#000000"/><text fill="#000000" font-family="sans-serif" font-size="14" lengthAdjust="spacing" textLength="9.5771" x="36" y="27.8467">A</text><line style="stroke:#181818;stroke-width:0.5;" x1="8" x2="47.5771" y1="39" y2="39"/><line style="stroke:#181818;stroke-width:0.5;" x1="8" x2="47.5771" y1="47" y2="47"/></g><!--class B--><g class="entity" data-entity="B" data-source-line="2" data-uid="ent0003" id="entity_B"><rect fill="#F1F1F1" height="48" rx="2.5" ry="2.5" style="stroke:#181818;stroke-width:0.5;" width="41.6045" x="251.58" y="7"/><ellipse cx="266.58" cy="23" fill="#ADD1B2" rx="11" ry="11" style="stroke:#181818;stroke-width:1;"/><path d="M269.5488,28.6406 Q268.9706,28.9375 268.33,29.0781 Q267.6894,29.2344 266.9863,29.2344 Q264.4863,29.2344 263.1581,27.5938 Q261.8456,25.9375 261.8456,22.8125 Q261.8456,19.6875 263.1581,18.0313 Q264.4863,16.375 266.9863,16.375 Q267.6894,16.375 268.33,16.5313 Q268.9863,16.6875 269.5488,16.9844 L269.5488,19.7031 Q268.9238,19.125 268.33,18.8594 Q267.7363,18.5781 267.1113,18.5781 Q265.7675,18.5781 265.08,19.6563 Q264.3925,20.7188 264.3925,22.8125 Q264.3925,24.9063 265.08,25.9844 Q265.7675,27.0469 267.1113,27.0469 Q267.7363,27.0469 268.33,26.7813 Q268.9238,26.5 269.5488,25.9219 L269.5488,28.6406 Z " fill="#000000"/><text fill="#000000" font-family="sans-serif" font-size="14" lengthAdjust="spacing" textLength="9.6045" x="280.58" y="27.8467">B</text><line style="stroke:#181818;stroke-width:0.5;" x1="252.58" x2="292.1845" y1="39" y2="39"/><line style="stroke:#181818;stroke-width:0.5;" x1="252.58" x2="292.1845" y1="47" y2="47"/></g><!--link A to B--><g class="link" data-entity-1="A" data-entity-2="B" data-source-line="4" data-uid="lnk4" id="link_A_B"><path codeLine="4" d="M49.05,31 C94.83,31 199.78,31 245.34,31" fill="none" id="A-to-B" style="stroke:#181818;stroke-width:1;stroke-dasharray:7,7;"/><polygon fill="#181818" points="251.34,31,242.34,27,246.34,31,242.34,35,251.34,31" style="stroke:#181818;stroke-width:1;"/><text fill="#000000" font-family="sans-serif" font-size="13" lengthAdjust="spacing" textLength="141.3052" x="79.58" y="27.0669">usa temporariamente</text></g><!--SRC=[Iyv9B2vMSEHA1jDEN3cfQIKA9VaAHPdf6IKAAPb5gSabcVbvN8uAUdfs2auALWgbnOaA9Qcv1Vb5YKMPYRcfUIMf0000]--></g></svg>