<svg xmlns="http://www.w3.org/2000/svg" xmlns:xlink="http://www.w3.org/1999/xlink" contentStyleType="text/css" data-diagram-type="ACTIVITY" height="607px" preserveAspectRatio="none" style="width:464px;height:607px;background:#FFFFFF;" version="1.1" viewBox="0 0 464 607" width="464px" zoomAndPan="magnify"><?plantuml 1.2026.3beta6?><defs/><g><ellipse cx="229.8555" cy="25" fill="#222222" rx="10" ry="10" style="stroke:#222222;stroke-width:1;"/><rect fill="#F1F1F1" height="47.9375" rx="12.5" ry="12.5" style="stroke:#181818;stroke-width:0.5;" width="218.334" x="120.6885" y="55"/><text fill="#000000" font-family="sans-serif" font-size="12" font-weight="700" lengthAdjust="spacing" textLength="76.2891" x="191.7109" y="76.1387">inicializar()</text><text fill="#000000" font-family="sans-serif" font-size="12" lengthAdjust="spacing" textLength="198.334" x="130.6885" y="90.1074">Carrega as configura&#231;&#245;es iniciais</text><rect fill="#F1F1F1" height="33.9688" rx="12.5" ry="12.5" style="stroke:#181818;stroke-width:0.5;" width="164.9668" x="147.3721" y="190.875"/><text fill="#000000" font-family="sans-serif" font-size="12" lengthAdjust="spacing" textLength="144.9668" x="157.3721" y="212.0137">Mostra Menu de Op&#231;&#245;es</text><rect fill="#F1F1F1" height="33.9688" rx="12.5" ry="12.5" style="stroke:#181818;stroke-width:0.5;" width="155.5977" x="152.0566" y="244.8438"/><text fill="#000000" font-family="sans-serif" font-size="12" lengthAdjust="spacing" textLength="135.5977" x="162.0566" y="265.9824">L&#234; a Op&#231;&#227;o do Usu&#225;rio</text><polygon fill="#F1F1F1" points="191.0654,313.8125,268.6455,313.8125,280.6455,325.8125,268.6455,337.8125,191.0654,337.8125,179.0654,325.8125,191.0654,313.8125" style="stroke:#181818;stroke-width:0.5;"/><text fill="#000000" font-family="sans-serif" font-size="11" lengthAdjust="spacing" textLength="77.5801" x="191.0654" y="329.6206">Op&#231;&#227;o v&#225;lida?</text><text fill="#000000" font-family="sans-serif" font-size="11" lengthAdjust="spacing" textLength="20.7539" x="158.3115" y="323.2183">Sim</text><text fill="#000000" font-family="sans-serif" font-size="11" lengthAdjust="spacing" textLength="21.6992" x="280.6455" y="323.2183">N&#227;o</text><rect fill="#F1F1F1" height="33.9688" rx="12.5" ry="12.5" style="stroke:#181818;stroke-width:0.5;" width="217.7773" x="16" y="347.8125"/><text fill="#000000" font-family="sans-serif" font-size="12" lengthAdjust="spacing" textLength="197.7773" x="26" y="368.9512">Executa a tarefa correspondente</text><rect fill="#F1F1F1" height="33.9688" rx="12.5" ry="12.5" style="stroke:#181818;stroke-width:0.5;" width="162.0898" x="253.7773" y="347.8125"/><text fill="#000000" font-family="sans-serif" font-size="12" lengthAdjust="spacing" textLength="142.0898" x="263.7773" y="368.9512">Exibe "Op&#231;&#227;o Inv&#225;lida!"</text><polygon fill="#F1F1F1" points="229.8555,387.7813,241.8555,399.7813,229.8555,411.7813,217.8555,399.7813,229.8555,387.7813" style="stroke:#181818;stroke-width:0.5;"/><rect fill="#F1F1F1" height="47.9375" rx="12.5" ry="12.5" style="stroke:#181818;stroke-width:0.5;" width="104.1465" x="177.7822" y="122.9375"/><text fill="#000000" font-family="sans-serif" font-size="12" font-weight="700" lengthAdjust="spacing" textLength="70.3945" x="194.6582" y="144.0762">executar()</text><text fill="#000000" font-family="sans-serif" font-size="12" lengthAdjust="spacing" textLength="84.1465" x="187.7822" y="158.0449">Loop Principal</text><polygon fill="#F1F1F1" points="158.9678,431.7813,300.7432,431.7813,312.7432,443.7813,300.7432,455.7813,158.9678,455.7813,146.9678,443.7813,158.9678,431.7813" style="stroke:#181818;stroke-width:0.5;"/><text fill="#000000" font-family="sans-serif" font-size="11" lengthAdjust="spacing" textLength="141.7754" x="158.9678" y="447.5894">Deseja sair? (Op&#231;&#227;o != 3)</text><text fill="#000000" font-family="sans-serif" font-size="11" lengthAdjust="spacing" textLength="21.6992" x="312.7432" y="441.187">N&#227;o</text><rect fill="#F1F1F1" height="47.9375" rx="12.5" ry="12.5" style="stroke:#181818;stroke-width:0.5;" width="171.3652" x="144.1729" y="497.1802"/><text fill="#000000" font-family="sans-serif" font-size="12" font-weight="700" lengthAdjust="spacing" textLength="66.1699" x="196.7705" y="518.3188">finalizar()</text><text fill="#000000" font-family="sans-serif" font-size="12" lengthAdjust="spacing" textLength="151.3652" x="154.1729" y="532.2876">Salva os dados e encerra</text><ellipse cx="229.8555" cy="576.1177" fill="none" rx="11" ry="11" style="stroke:#222222;stroke-width:1;"/><ellipse cx="229.8555" cy="576.1177" fill="#222222" rx="6" ry="6" style="stroke:#222222;stroke-width:1;"/><line style="stroke:#181818;stroke-width:1;" x1="229.8555" x2="229.8555" y1="35" y2="55"/><polygon fill="#181818" points="225.8555,45,229.8555,55,233.8555,45,229.8555,49" style="stroke:#181818;stroke-width:1;"/><line style="stroke:#181818;stroke-width:1;" x1="229.8555" x2="229.8555" y1="224.8438" y2="244.8438"/><polygon fill="#181818" points="225.8555,234.8438,229.8555,244.8438,233.8555,234.8438,229.8555,238.8438" style="stroke:#181818;stroke-width:1;"/><line style="stroke:#181818;stroke-width:1;" x1="179.0654" x2="124.8887" y1="325.8125" y2="325.8125"/><line style="stroke:#181818;stroke-width:1;" x1="124.8887" x2="124.8887" y1="325.8125" y2="347.8125"/><polygon fill="#181818" points="120.8887,337.8125,124.8887,347.8125,128.8887,337.8125,124.8887,341.8125" style="stroke:#181818;stroke-width:1;"/><line style="stroke:#181818;stroke-width:1;" x1="280.6455" x2="334.8223" y1="325.8125" y2="325.8125"/><line style="stroke:#181818;stroke-width:1;" x1="334.8223" x2="334.8223" y1="325.8125" y2="347.8125"/><polygon fill="#181818" points="330.8223,337.8125,334.8223,347.8125,338.8223,337.8125,334.8223,341.8125" style="stroke:#181818;stroke-width:1;"/><line style="stroke:#181818;stroke-width:1;" x1="124.8887" x2="124.8887" y1="381.7813" y2="399.7813"/><line style="stroke:#181818;stroke-width:1;" x1="124.8887" x2="217.8555" y1="399.7813" y2="399.7813"/><polygon fill="#181818" points="207.8555,395.7813,217.8555,399.7813,207.8555,403.7813,211.8555,399.7813" style="stroke:#181818;stroke-width:1;"/><line style="stroke:#181818;stroke-width:1;" x1="334.8223" x2="334.8223" y1="381.7813" y2="399.7813"/><line style="stroke:#181818;stroke-width:1;" x1="334.8223" x2="241.8555" y1="399.7813" y2="399.7813"/><polygon fill="#181818" points="251.8555,395.7813,241.8555,399.7813,251.8555,403.7813,247.8555,399.7813" style="stroke:#181818;stroke-width:1;"/><line style="stroke:#181818;stroke-width:1;" x1="229.8555" x2="229.8555" y1="278.8125" y2="313.8125"/><polygon fill="#181818" points="225.8555,303.8125,229.8555,313.8125,233.8555,303.8125,229.8555,307.8125" style="stroke:#181818;stroke-width:1;"/><line style="stroke:#181818;stroke-width:1;" x1="229.8555" x2="229.8555" y1="170.875" y2="190.875"/><polygon fill="#181818" points="225.8555,180.875,229.8555,190.875,233.8555,180.875,229.8555,184.875" style="stroke:#181818;stroke-width:1;"/><line style="stroke:#181818;stroke-width:1;" x1="312.7432" x2="429.8672" y1="443.7813" y2="443.7813"/><polygon fill="#181818" points="425.8672,297.8438,429.8672,287.8438,433.8672,297.8438,429.8672,293.8438" style="stroke:#181818;stroke-width:1;"/><line style="stroke:#181818;stroke-width:1;" x1="429.8672" x2="429.8672" y1="146.9063" y2="443.7813"/><line style="stroke:#181818;stroke-width:1;" x1="429.8672" x2="281.9287" y1="146.9063" y2="146.9063"/><polygon fill="#181818" points="291.9287,142.9063,281.9287,146.9063,291.9287,150.9063,287.9287,146.9063" style="stroke:#181818;stroke-width:1;"/><line style="stroke:#181818;stroke-width:1;" x1="229.8555" x2="229.8555" y1="411.7813" y2="431.7813"/><polygon fill="#181818" points="225.8555,421.7813,229.8555,431.7813,233.8555,421.7813,229.8555,425.7813" style="stroke:#181818;stroke-width:1;"/><line style="stroke:#181818;stroke-width:1;" x1="229.8555" x2="229.8555" y1="102.9375" y2="122.9375"/><polygon fill="#181818" points="225.8555,112.9375,229.8555,122.9375,233.8555,112.9375,229.8555,116.9375" style="stroke:#181818;stroke-width:1;"/><line style="stroke:#181818;stroke-width:1;" x1="229.8555" x2="229.8555" y1="455.7813" y2="497.1802"/><polygon fill="#181818" points="225.8555,487.1802,229.8555,497.1802,233.8555,487.1802,229.8555,491.1802" style="stroke:#181818;stroke-width:1;"/><text fill="#000000" font-family="sans-serif" font-size="11" lengthAdjust="spacing" textLength="20.7539" x="233.8555" y="477.0859">Sim</text><line style="stroke:#181818;stroke-width:1;" x1="229.8555" x2="229.8555" y1="545.1177" y2="565.1177"/><polygon fill="#181818" points="225.8555,555.1177,229.8555,565.1177,233.8555,555.1177,229.8555,559.1177" style="stroke:#181818;stroke-width:1;"/><?plantuml-src LP6nJWCn38RtF8NRwMv036ozqWe10r8BI8MDnRtuMaEQH4ckLBnDnO34pXFSY-7hzOgG8W-n_Vd_xVZ6rcF03MYgi3RfYNRfol3ARiWcA2LGK2ec34cDnii9MouP3NzWoFBn-NAYhZ44MY5WXDBPYbTrmEQh-Q48NJ77Ggb0dZ11Yw0TbNNg-r_ip3aFZu5joHvDeG16SnTJG9YJhKKOFFWEUCZDcc_0xklJWNRm7Ejc7zYrMNbSGTPdjytUiCPf3cbD5h85Rt8f4Sfj9q98eaIiYtQn4RspklNSiiX4WknUEASUNX8CU_YTFU87mqEvrLor4evMtzTifF-68hqYHEGm_HCsk8IBF0UE_G1rDW5HLnoMNB7zj-85cYs2Yw1HIoIPLL88MCXXdFy5?></g></svg>